<svg id="Layer_1" height="512" viewBox="0 0 48 48" width="512" xmlns="http://www.w3.org/2000/svg"><path d="m9 33h-2c-2.209 0-4-1.791-4-4v-4c0-2.209 1.791-4 4-4h2c.552 0 1 .448 1 1v10c0 .552-.448 1-1 1z" fill="#71767a"/><path d="m39 21h2c2.209 0 4 1.791 4 4v4c0 2.209-1.791 4-4 4h-2c-.552 0-1-.448-1-1v-10c0-.552.448-1 1-1z" fill="#71767a"/><path d="m9 30h-2c-2.209 0-4-1.791-4-4v3c0 2.209 1.791 4 4 4h2c.552 0 1-.448 1-1v-3c0 .552-.448 1-1 1z" fill="#5a5e62"/><path d="m41 30h-2c-.552 0-1-.448-1-1v3c0 .552.448 1 1 1h2c2.209 0 4-1.791 4-4v-3c0 2.209-1.791 4-4 4z" fill="#5a5e62"/><rect fill="#4c5053" height="6" rx="3" width="9" x="21" y="39"/><path d="m27 42h-3c-1.108 0-2.064-.607-2.584-1.5-.258.443-.416.951-.416 1.5 0 1.657 1.343 3 3 3h3c1.657 0 3-1.343 3-3 0-.549-.158-1.057-.416-1.5-.52.893-1.476 1.5-2.584 1.5z" fill="#35383a"/><path d="m29 18h-10c-2.209 0-4 1.791-4 4v6c0 2.209 1.791 4 4 4h1v2.793c0 .445.539.669.854.354l3.146-3.146h5c2.209 0 4-1.791 4-4v-6c0-2.209-1.791-4-4-4z" fill="#f4f6f8"/><path d="m32 29h-12c-1.105 0-2-.895-2-2v-8c0-.308.042-.604.108-.892-1.778.406-3.108 1.991-3.108 3.892v6c0 2.209 1.791 4 4 4h1v2.793c0 .445.539.669.854.354l3.146-3.146h5c1.901 0 3.486-1.33 3.892-3.108-.288.066-.584.108-.892.108z" fill="#e1e3e5"/><g fill="#202223"><path d="m42 20.101v-.101c0-9.925-8.075-18-18-18s-18 8.075-18 18v.101c-2.279.465-4 2.484-4 4.899v4c0 2.757 2.243 5 5 5h2c1.103 0 2-.897 2-2v-10c0-1.103-.897-2-2-2h-1c0-8.822 7.178-16 16-16s16 7.178 16 16h-1c-1.103 0-2 .897-2 2v10c0 1.103.897 2 2 2h1c0 3.859-3.14 7-7 7h-2.142c-.447-1.721-2-3-3.858-3h-3c-2.206 0-4 1.794-4 4s1.794 4 4 4h3c1.858 0 3.411-1.279 3.858-3h2.142c4.962 0 9-4.037 9-9v-.101c2.279-.465 4-2.484 4-4.899v-4c0-2.414-1.721-4.434-4-4.899zm-33 1.899v10s-2 0-2 0c-1.654 0-3-1.346-3-3v-4c0-1.654 1.346-3 3-3zm18 22h-3c-1.103 0-2-.897-2-2s.897-2 2-2h3c1.103 0 2 .897 2 2s-.897 2-2 2zm17-15c0 1.654-1.346 3-3 3h-2v-10s0 0 0 0h2c1.654 0 3 1.346 3 3z"/><path d="m21.561 35.854 2.854-2.854h4.586c2.757 0 5-2.243 5-5v-6c0-2.757-2.243-5-5-5h-10c-2.757 0-5 2.243-5 5v6c0 2.757 2.243 5 5 5v1.793c0 .609.364 1.153.927 1.386.187.078.382.115.575.115.39 0 .772-.152 1.059-.44zm-2.561-4.854c-1.654 0-3-1.346-3-3v-6c0-1.654 1.346-3 3-3h10c1.654 0 3 1.346 3 3v6c0 1.654-1.346 3-3 3h-5c-.265 0-.52.105-.707.293l-2.293 2.293v-1.586c0-.553-.448-1-1-1z"/><path d="m20 24h8c.552 0 1-.448 1-1s-.448-1-1-1h-8c-.552 0-1 .448-1 1s.448 1 1 1z"/><path d="m27 27c0-.553-.448-1-1-1h-6c-.552 0-1 .447-1 1s.448 1 1 1h6c.552 0 1-.447 1-1z"/></g></svg>